<?xml version="1.0" encoding="utf-8"?>
<!-- Generator: Adobe Illustrator 24.0.1, SVG Export Plug-In . SVG Version: 6.00 Build 0)  -->
<svg version="1.1" id="Ebene_1" xmlns="http://www.w3.org/2000/svg" xmlns:xlink="http://www.w3.org/1999/xlink" x="0px" y="0px"
	 viewBox="0 0 400 400" style="enable-background:new 0 0 400 400;" xml:space="preserve">
<style type="text/css">
	.st0{fill:#FFCC01;stroke:#000000;stroke-width:4;}
</style>
<title>Element 1</title>
<g id="Ebene_2_1_">
	<g id="Sidebar">
		<g id="Logo-2">
			<g>
				<path class="st0" d="M101.1,251.6c0,10.5,6.9,18.1,17.5,18.1c5.3-0.1,10.3-2.4,13.9-6.2v-24.1c-3.6-3.9-8.6-6.1-13.9-6.2
					C107.9,233.2,101.1,240.9,101.1,251.6z"/>
				<path class="st0" d="M268.6,235.1c-9.9-4.6-19.2-0.3-23.4,8l29.3,13.7c0.5-0.9,1.2-1.9,1.7-3C279.2,247.3,278,239.5,268.6,235.1
					z"/>
				<path class="st0" d="M205.1,156c3-6.5,1.8-14.3-7.6-18.7c-9.9-4.6-19.2-0.3-23.4,8l29.3,13.7C203.9,158,204.6,157,205.1,156z"/>
				<path class="st0" d="M79.8,134.9c-10.8,0-18.4,8-18.4,18.6c0,10.4,7.6,18.3,18.4,18.3c11,0,18.6-7.9,18.6-18.3
					C98.4,142.9,90.8,134.9,79.8,134.9z"/>
				<path class="st0" d="M200,2C90.6,2,2,90.6,2,200s88.6,198,198,198s198-88.6,198-198S309.4,2,200,2z M170.2,145.2
					c5-10.8,16.6-16.4,28.6-10.8c11.4,5.3,13.1,14.8,9.2,23.3c-0.8,1.8-1.9,3.5-3.2,5.1l-32.1-15c-3.7,8.8-1.9,18.1,9.6,23.5
					c5,2.3,10.6,2.9,15.9,1.7l0.4,3.2c-5.9,1.4-12.1,0.7-17.5-2C167,167.6,165.2,156,170.2,145.2z M88,236.4
					c-1.4-2.1-3.3-3.1-6.6-3.1c-6.6,0-9.6,6.3-11.4,13v25.8h-3.5v-33.5c0-3.4-1.1-5.5-4.1-5.5c-1.7,0.1-3.4,0.7-4.8,1.7L57,232
					c1.8-1.4,4-2.1,6.3-2.1c4.7,0,6.7,2.8,6.7,8.1v1.6c2.2-5.7,5.5-9.6,11.7-9.6c3.9,0,6.2,1.3,7.6,3.6L88,236.4z M79.8,175.1
					c-12.8,0-21.8-9.2-21.8-21.6c0-12.6,9-21.9,21.8-21.9c13,0,22,9.3,22,21.9C101.8,165.9,92.8,175.1,79.8,175.1z M139.1,272.8
					c-4.2,0-6.1-2.3-6.6-6.2c-3.9,3.9-9.2,6.2-14.7,6.2c-12.3,0-20.5-8.8-20.5-21.2c0-12.6,8.1-21.6,20.5-21.6
					c5.4,0,10.6,2.2,14.5,6v-5.3h3.5v33.5h0.1c0,3.4,1.1,5.5,4.1,5.5c1.7-0.1,3.4-0.7,4.7-1.8l0.7,2.8
					C143.5,272,141.4,272.7,139.1,272.8z M150.4,138.4c-1.4-2.1-3.3-3.1-6.6-3.1c-6.6,0-9.6,6.3-11.4,13v25.8h-3.5v-33.5
					c0-3.4-1.1-5.5-4.1-5.5c-1.7,0.1-3.4,0.7-4.8,1.7l-0.6-2.8c1.8-1.4,4-2.1,6.3-2.1c4.7,0,6.7,2.8,6.7,8.1v1.6
					c2.2-5.7,5.5-9.6,11.7-9.6c3.9,0,6.2,1.3,7.6,3.6L150.4,138.4z M224.7,272.7c-4.7,0-6.6-2.9-6.6-8.1v-16
					c0-8.7-3.7-15.3-12.7-15.3c-7.7,0-12.6,5.6-14.1,12.1V272h-3.5v-23.5c0-8.8-3.6-15.2-12.6-15.2c-7.8,0-12.6,5.5-14.2,12V272
					h-3.5v-41.3h3.5v8.8c2.6-6,8.6-9.8,15.1-9.6c8.2,0,12.5,4,14.5,10.7c2.4-6.6,8.8-10.9,15.8-10.7c10.7,0,15.2,7.9,15.2,18.2v16
					c0,3.4,1,5.5,4,5.5c1.7-0.1,3.3-0.7,4.7-1.8l0.8,2.8C229.2,271.9,227,272.6,224.7,272.7z M236,174.1h-3.5v-41.3l3.5-0.1v8.5
					c2.8-5.8,8.4-9.2,15.7-9.2c10.7,0,15.9,7.9,15.9,18.2v16c0,3.4,1.1,5.5,4.1,5.5c1.7-0.1,3.4-0.7,4.7-1.8l0.7,2.8
					c-1.8,1.3-4,2-6.3,2.1c-4.7,0-6.7-2.9-6.7-8.1v-16c0-8.7-4.2-15.3-13.2-15.3c-7.1-0.1-13.3,4.6-14.9,11.5V174.1z M279.1,255.6
					c-0.8,1.8-1.9,3.5-3.2,5.1l-32.1-15c-3.7,8.8-1.9,18.1,9.6,23.5c5,2.3,10.6,2.9,15.9,1.7l0.4,3.2c-5.9,1.4-12.1,0.7-17.5-2
					c-14.1-6.6-15.9-18.2-10.9-29c5-10.8,16.6-16.4,28.6-10.8C281.3,237.6,283,247.1,279.1,255.6z M316.1,131.6c13,0,22,9.3,22,21.9
					c0,12.4-9,21.6-22,21.6c-12.8,0-21.8-9.2-21.8-21.6C294.3,140.9,303.3,131.6,316.1,131.6z M332.9,272.8c-4.7,0-6.7-2.9-6.7-8.1
					v-16c0-8.7-4.2-15.3-13.2-15.3c-7.1-0.2-13.3,4.6-14.9,11.5v27.2h-3.5v-41.3h3.5v8.4c2.8-5.8,8.4-9.2,15.7-9.2
					c10.7,0,15.9,7.9,15.9,18.2v16c0,3.4,1.1,5.5,4.1,5.5c1.7-0.1,3.4-0.7,4.7-1.8l0.7,2.8C337.4,272,335.2,272.7,332.9,272.8z"/>
				<path class="st0" d="M316.1,171.8c11,0,18.6-7.9,18.6-18.3c0-10.6-7.6-18.6-18.6-18.6v0c-10.8,0-18.4,8-18.4,18.6
					C297.7,163.9,305.1,171.8,316.1,171.8z"/>
			</g>
			<g>
				<path d="M79.8,131.6c-12.8,0-21.8,9.3-21.8,21.9c0,12.4,9,21.6,21.8,21.6c13,0,22-9.2,22-21.6
					C101.8,140.9,92.8,131.6,79.8,131.6z M79.8,171.8c-10.8,0-18.4-7.9-18.4-18.3c0-10.6,7.6-18.6,18.4-18.6c11,0,18.6,8,18.6,18.6
					C98.4,163.9,90.8,171.8,79.8,171.8z"/>
				<path d="M144.1,132c-6.2,0-9.5,3.9-11.7,9.6V140c0-5.3-2-8.1-6.7-8.1c-2.3,0-4.5,0.7-6.3,2.1l0.6,2.8c1.4-1,3.1-1.6,4.8-1.7
					c3,0,4.1,2.1,4.1,5.5v33.5h3.5v-25.8c1.8-6.7,4.8-13,11.4-13c3.3,0,5.2,1,6.6,3.1l1.3-2.8C150.3,133.3,148,132,144.1,132z"/>
				<path d="M181.1,174.2c5.4,2.7,11.6,3.4,17.5,2l-0.4-3.2c-5.3,1.2-10.9,0.6-15.9-1.7c-11.5-5.4-13.3-14.7-9.6-23.5l32.1,15
					c1.3-1.6,2.4-3.3,3.2-5.1c3.9-8.5,2.2-18-9.2-23.3c-12-5.6-23.6,0-28.6,10.8C165.2,156,167,167.6,181.1,174.2z M197.5,137.3
					c9.4,4.4,10.6,12.2,7.6,18.7c-0.5,1-1.2,2-1.7,3l-29.3-13.7C178.3,137,187.6,132.7,197.5,137.3z"/>
				<path d="M250.9,135.4c9,0,13.2,6.6,13.2,15.3v16c0,5.2,2,8.1,6.7,8.1c2.3-0.1,4.5-0.8,6.3-2.1l-0.7-2.8c-1.3,1.1-3,1.7-4.7,1.8
					c-3,0-4.1-2.1-4.1-5.5v-16c0-10.3-5.2-18.2-15.9-18.2c-7.3,0-12.9,3.4-15.7,9.2v-8.5l-3.5,0.1v41.3h3.5v-27.2
					C237.6,140,243.8,135.3,250.9,135.4z"/>
				<path d="M316.1,175.1c13,0,22-9.2,22-21.6c0-12.6-9-21.9-22-21.9c-12.8,0-21.8,9.3-21.8,21.9
					C294.3,165.9,303.3,175.1,316.1,175.1z M316.1,134.9L316.1,134.9c11,0,18.6,8,18.6,18.6c0,10.4-7.6,18.3-18.6,18.3
					s-18.4-7.9-18.4-18.3C297.7,142.9,305.3,134.9,316.1,134.9z"/>
				<path d="M81.7,230c-6.2,0-9.5,3.9-11.7,9.6V238c0-5.3-2-8.1-6.7-8.1c-2.3,0-4.5,0.7-6.3,2.1l0.6,2.8c1.4-1,3.1-1.6,4.8-1.7
					c3,0,4.1,2.1,4.1,5.5v33.5H70v-25.8c1.8-6.7,4.8-13,11.4-13c3.3,0,5.2,1,6.6,3.1l1.3-2.8C87.9,231.3,85.6,230,81.7,230z"/>
				<path d="M140,269.7c-3,0-4.1-2.1-4.1-5.5h-0.1v-33.5h-3.5v5.3c-3.9-3.8-9.1-6-14.5-6c-12.4,0-20.5,9-20.5,21.6
					c0,12.4,8.2,21.2,20.5,21.2c5.5,0,10.8-2.3,14.7-6.2c0.5,3.9,2.4,6.2,6.6,6.2c2.3-0.1,4.4-0.8,6.3-2.1l-0.7-2.8
					C143.4,269,141.7,269.6,140,269.7z M132.5,263.5c-3.6,3.8-8.6,6.1-13.9,6.2c-10.6,0-17.5-7.6-17.5-18.1
					c0-10.7,6.8-18.4,17.5-18.4c5.3,0.1,10.3,2.3,13.9,6.2V263.5z"/>
				<path d="M225.6,269.6c-3,0-4-2.1-4-5.5v-16c0-10.3-4.5-18.2-15.2-18.2c-7-0.2-13.4,4.1-15.8,10.7c-2-6.7-6.3-10.7-14.5-10.7
					c-6.5-0.2-12.5,3.6-15.1,9.6v-8.8h-3.5V272h3.5v-26.7c1.6-6.5,6.4-12,14.2-12c9,0,12.6,6.4,12.6,15.2V272h3.5v-26.6
					c1.5-6.5,6.4-12.1,14.1-12.1c9,0,12.7,6.6,12.7,15.3v16c0,5.2,1.9,8.1,6.6,8.1c2.3-0.1,4.5-0.8,6.4-2.1l-0.8-2.8
					C228.9,268.9,227.3,269.5,225.6,269.6z"/>
				<path d="M269.9,232.3c-12-5.6-23.6,0-28.6,10.8c-5,10.8-3.2,22.4,10.9,29c5.4,2.7,11.6,3.4,17.5,2l-0.4-3.2
					c-5.3,1.2-10.9,0.6-15.9-1.7c-11.5-5.4-13.3-14.7-9.6-23.5l32.1,15c1.3-1.6,2.4-3.3,3.2-5.1C283,247.1,281.3,237.6,269.9,232.3z
					 M276.2,253.8c-0.5,1.1-1.2,2.1-1.7,3l-29.3-13.7c4.2-8.3,13.5-12.6,23.4-8C278,239.5,279.2,247.3,276.2,253.8z"/>
				<path d="M338.5,267.9c-1.3,1.1-3,1.7-4.7,1.8c-3,0-4.1-2.1-4.1-5.5v-16c0-10.3-5.2-18.2-15.9-18.2c-7.3,0-12.9,3.4-15.7,9.2
					v-8.4h-3.5v41.3h3.5v-27.2c1.6-6.9,7.8-11.7,14.9-11.5c9,0,13.2,6.6,13.2,15.3v16c0,5.2,2,8.1,6.7,8.1c2.3-0.1,4.5-0.8,6.3-2.1
					L338.5,267.9z"/>
			</g>
		</g>
	</g>
</g>
</svg>
