<?xml version="1.0" standalone="no"?>
<!DOCTYPE svg PUBLIC "-//W3C//DTD SVG 20010904//EN"
 "http://www.w3.org/TR/2001/REC-SVG-20010904/DTD/svg10.dtd">
<svg version="1.0" xmlns="http://www.w3.org/2000/svg"
 width="712.000000pt" height="712.000000pt" viewBox="0 0 712.000000 712.000000"
 preserveAspectRatio="xMidYMid meet">
<metadata>
Created by potrace 1.14, written by Peter Selinger 2001-2017
</metadata>
<g transform="translate(0.000000,712.000000) scale(0.100000,-0.100000)"
fill="#000000" stroke="none">
<path d="M3550 6499 c-174 -15 -404 -104 -624 -241 -107 -67 -264 -188 -334
-257 -121 -120 -173 -294 -252 -846 -30 -208 -34 -225 -76 -316 -24 -52 -44
-103 -44 -112 0 -28 21 -64 46 -78 13 -7 24 -19 25 -28 5 -69 -18 -125 -57
-143 -20 -9 -31 -8 -54 5 -15 9 -31 17 -35 17 -20 0 7 -108 45 -176 l40 -74
-11 -72 c-16 -99 -6 -293 20 -391 42 -160 129 -289 211 -313 l35 -10 3 -104
c5 -151 -20 -215 -96 -247 -31 -13 -34 -17 -28 -45 12 -61 54 -117 112 -150
40 -22 54 -35 50 -47 -2 -9 -8 -25 -11 -37 -5 -15 5 -33 40 -71 55 -62 132
-103 191 -103 71 0 75 -10 90 -250 10 -164 -7 -277 -58 -380 -34 -70 -59 -102
-142 -186 -160 -161 -318 -256 -848 -510 -356 -170 -792 -392 -943 -479 -339
-195 -530 -393 -700 -725 -30 -60 -55 -113 -55 -119 0 -6 20 -11 48 -11 l47 0
59 117 c160 324 353 526 698 731 248 147 519 287 1052 542 204 97 220 103 230
86 146 -248 372 -452 651 -586 173 -83 375 -145 573 -176 116 -17 415 -20 522
-4 387 58 692 230 897 505 62 82 146 241 198 375 21 52 39 98 41 101 11 19
585 -218 1030 -426 372 -174 506 -256 645 -396 127 -128 229 -297 305 -504
l33 -90 0 130 1 130 -68 109 c-93 148 -155 220 -270 316 -117 98 -202 150
-429 264 -321 160 -658 307 -1078 470 -137 54 -296 120 -351 147 -184 90 -277
201 -306 364 -7 43 -12 168 -13 324 l0 253 55 17 c113 36 173 79 230 163 46
69 54 122 20 133 -11 3 -29 18 -40 32 l-20 26 30 16 c72 39 116 80 145 132 25
46 29 65 30 129 l0 75 -38 0 c-44 0 -57 15 -57 65 0 52 22 77 80 89 136 29
202 110 229 282 11 70 7 79 -40 79 -51 0 -105 23 -113 47 -3 10 -8 67 -11 126
-5 127 -18 183 -51 218 -24 25 -52 135 -38 148 3 3 20 6 37 6 73 0 74 102 3
267 -25 59 -46 120 -46 137 0 52 -67 433 -100 565 -61 249 -137 432 -207 497
-96 90 -331 247 -483 324 -237 119 -441 163 -670 144z m1015 -1710 c70 -42 91
-81 106 -201 18 -149 -20 -266 -118 -359 -204 -193 -527 -135 -644 116 -27 56
-30 75 -31 157 0 129 22 188 77 206 144 48 412 43 550 -9 80 -30 82 -28 25 60
-37 57 -38 62 -18 56 13 -4 37 -15 53 -26z m-1335 -77 l144 -17 33 -43 c70
-93 84 -258 30 -375 -115 -251 -447 -311 -640 -114 -83 85 -122 218 -106 352
16 128 36 156 139 205 40 19 56 20 150 15 58 -4 170 -14 250 -23z m552 -149
c21 -19 48 -102 48 -146 0 -17 3 -28 6 -24 3 3 22 -26 41 -64 61 -122 150
-194 288 -234 180 -53 400 42 493 213 l29 52 16 -87 c45 -234 48 -489 8 -683
-25 -125 -89 -317 -136 -410 -50 -99 -161 -272 -249 -389 -105 -140 -97 -133
-90 -81 l7 45 -44 -49 c-24 -27 -50 -57 -57 -67 -7 -10 -38 -39 -68 -64 -64
-52 -82 -54 -189 -26 -85 23 -180 20 -302 -9 -157 -37 -241 -21 -300 57 -15
20 -43 52 -61 72 l-32 36 30 -69 c17 -38 29 -73 28 -78 -4 -11 -199 186 -284
287 -145 172 -265 382 -328 577 -93 285 -94 468 -3 993 l12 70 6 -75 c10 -110
40 -180 111 -256 134 -142 337 -185 499 -103 141 71 225 196 254 381 10 62 73
120 165 149 33 11 79 3 102 -18z m761 -2390 c17 -78 53 -158 92 -205 71 -84
208 -175 338 -223 26 -10 47 -24 47 -32 0 -25 -68 -192 -117 -286 -173 -335
-488 -559 -893 -634 -133 -24 -436 -24 -575 1 -136 25 -323 77 -431 120 -84
34 -271 135 -322 175 l-24 18 22 72 c74 250 282 650 466 897 93 125 79 118
150 75 130 -79 280 -105 443 -77 276 48 514 230 731 560 l45 68 7 -229 c4
-143 12 -255 21 -300z"/>
<path d="M4034 4631 c-47 -12 -107 -44 -112 -60 -3 -10 0 -12 13 -8 9 4 28 10
43 14 l25 6 -25 -34 c-26 -34 -45 -79 -33 -79 3 0 30 25 60 55 65 67 85 71 85
17 0 -67 14 -76 111 -69 91 6 109 17 109 69 0 15 4 28 10 28 19 0 111 -41 150
-66 22 -15 43 -24 46 -21 20 19 -84 102 -166 133 -50 19 -263 29 -316 15z
m224 -58 c-2 -10 -10 -18 -18 -18 -8 0 -16 8 -18 18 -2 12 3 17 18 17 15 0 20
-5 18 -17z"/>
<path d="M3050 4617 c-104 -29 -174 -64 -219 -110 -50 -53 -30 -63 37 -18 31
22 74 46 95 54 l37 16 0 -29 c0 -58 17 -77 75 -83 29 -3 71 -3 94 0 35 5 42
10 51 39 8 23 8 44 1 69 -9 34 -9 36 12 29 30 -9 61 -38 83 -80 10 -18 23 -34
27 -34 14 0 -1 52 -24 83 l-20 28 35 -7 c29 -5 36 -3 36 9 0 21 -78 45 -165
52 -55 4 -89 0 -155 -18z m128 -64 c5 -17 -26 -29 -40 -15 -6 6 -7 15 -3 22 9
14 37 9 43 -7z"/>
<path d="M3984 3990 c19 -65 22 -88 15 -108 -7 -18 -13 -20 -31 -13 -40 14
-127 2 -205 -29 -41 -17 -85 -30 -99 -30 -13 0 -54 16 -91 36 -60 32 -74 35
-128 32 -33 -2 -67 -6 -75 -8 -12 -4 -15 4 -15 35 0 22 4 52 8 68 4 15 4 27
-1 27 -13 0 -62 -83 -62 -106 0 -27 34 -71 62 -80 12 -3 49 -26 84 -49 86 -59
150 -79 254 -79 101 -1 142 17 264 114 69 55 76 64 76 96 0 39 -19 83 -46 105
-16 13 -17 12 -10 -11z"/>
<path d="M3895 3518 c-55 -4 -134 -13 -175 -20 -52 -10 -96 -11 -145 -5 -73 9
-278 3 -450 -12 -116 -11 -105 -9 -105 -20 0 -5 8 -12 18 -15 9 -3 37 -36 62
-72 90 -133 226 -230 380 -270 90 -24 263 -24 355 0 124 32 189 70 284 165 47
47 104 111 126 142 22 31 54 63 70 70 17 8 30 18 30 22 0 5 -67 10 -150 13
-82 2 -161 6 -175 7 -14 1 -70 -1 -125 -5z m225 -103 c0 -25 -7 -38 -27 -53
-52 -36 -135 -73 -211 -94 -146 -40 -446 -24 -594 32 -75 28 -86 38 -94 93
l-7 49 84 -9 c122 -12 552 -6 704 10 72 7 133 11 138 9 4 -2 7 -18 7 -37z"/>
</g>
</svg>
